<svg width="20" height="20" viewBox="0 0 20 20" fill="none" xmlns="http://www.w3.org/2000/svg">
<path fill-rule="evenodd" clip-rule="evenodd" d="M6.92918 2.47028C5.65796 2.32821 4.34205 2.32821 3.07084 2.47028C2.76195 2.50481 2.51835 2.7494 2.48361 3.04645C2.3318 4.34439 2.3318 5.65561 2.48361 6.95355C2.51835 7.25061 2.76195 7.49519 3.07084 7.52972C4.34206 7.67179 5.65796 7.67179 6.92918 7.52972C7.23807 7.49519 7.48167 7.25061 7.51641 6.95355C7.66822 5.65561 7.66822 4.34439 7.51641 3.04645C7.48167 2.7494 7.23807 2.50481 6.92918 2.47028ZM2.90423 0.979565C4.28617 0.825112 5.71384 0.825112 7.09579 0.979565C8.08663 1.09031 8.88907 1.87029 9.00626 2.8722C9.1716 4.28592 9.1716 5.71409 9.00626 7.1278C8.88907 8.12971 8.08663 8.90969 7.09579 9.02044C5.71384 9.17489 4.28617 9.17489 2.90423 9.02044C1.91339 8.90969 1.11094 8.12971 0.993761 7.1278C0.828414 5.71408 0.828414 4.28592 0.993761 2.8722C1.11094 1.87029 1.91339 1.09031 2.90423 0.979565Z" fill="black"/>
<path fill-rule="evenodd" clip-rule="evenodd" d="M6.92918 12.4703C5.65796 12.3282 4.34205 12.3282 3.07084 12.4703C2.76195 12.5048 2.51835 12.7494 2.48361 13.0465C2.3318 14.3444 2.3318 15.6556 2.48361 16.9535C2.51835 17.2506 2.76195 17.4952 3.07084 17.5297C4.34206 17.6718 5.65796 17.6718 6.92918 17.5297C7.23807 17.4952 7.48167 17.2506 7.51641 16.9535C7.66822 15.6556 7.66822 14.3444 7.51641 13.0465C7.48167 12.7494 7.23807 12.5048 6.92918 12.4703ZM2.90423 10.9796C4.28617 10.8251 5.71384 10.8251 7.09579 10.9796C8.08663 11.0903 8.88907 11.8703 9.00626 12.8722C9.1716 14.2859 9.1716 15.7141 9.00626 17.1278C8.88907 18.1297 8.08663 18.9097 7.09579 19.0204C5.71384 19.1749 4.28617 19.1749 2.90423 19.0204C1.91339 18.9097 1.11094 18.1297 0.993761 17.1278C0.828414 15.7141 0.828414 14.2859 0.993761 12.8722C1.11094 11.8703 1.91339 11.0903 2.90423 10.9796Z" fill="black"/>
<path fill-rule="evenodd" clip-rule="evenodd" d="M16.9292 2.47028C15.658 2.32821 14.3421 2.32821 13.0708 2.47028C12.7619 2.50481 12.5183 2.7494 12.4836 3.04645C12.3318 4.34439 12.3318 5.65561 12.4836 6.95355C12.5183 7.25061 12.7619 7.49519 13.0708 7.52972C14.3421 7.67179 15.658 7.67179 16.9292 7.52972C17.2381 7.49519 17.4817 7.25061 17.5164 6.95355C17.6682 5.65561 17.6682 4.34439 17.5164 3.04645C17.4817 2.7494 17.2381 2.50481 16.9292 2.47028ZM12.9042 0.979565C14.2862 0.825112 15.7138 0.825112 17.0958 0.979565C18.0866 1.09031 18.8891 1.87029 19.0063 2.8722C19.1716 4.28592 19.1716 5.71409 19.0063 7.1278C18.8891 8.12971 18.0866 8.90969 17.0958 9.02044C15.7138 9.17489 14.2862 9.17489 12.9042 9.02044C11.9134 8.90969 11.1109 8.12971 10.9938 7.1278C10.8284 5.71408 10.8284 4.28592 10.9938 2.8722C11.1109 1.87029 11.9134 1.09031 12.9042 0.979565Z" fill="black"/>
<path fill-rule="evenodd" clip-rule="evenodd" d="M16.9292 12.4703C15.658 12.3282 14.3421 12.3282 13.0708 12.4703C12.7619 12.5048 12.5183 12.7494 12.4836 13.0465C12.3318 14.3444 12.3318 15.6556 12.4836 16.9535C12.5183 17.2506 12.7619 17.4952 13.0708 17.5297C14.3421 17.6718 15.658 17.6718 16.9292 17.5297C17.2381 17.4952 17.4817 17.2506 17.5164 16.9535C17.6682 15.6556 17.6682 14.3444 17.5164 13.0465C17.4817 12.7494 17.2381 12.5048 16.9292 12.4703ZM12.9042 10.9796C14.2862 10.8251 15.7138 10.8251 17.0958 10.9796C18.0866 11.0903 18.8891 11.8703 19.0063 12.8722C19.1716 14.2859 19.1716 15.7141 19.0063 17.1278C18.8891 18.1297 18.0866 18.9097 17.0958 19.0204C15.7138 19.1749 14.2862 19.1749 12.9042 19.0204C11.9134 18.9097 11.1109 18.1297 10.9938 17.1278C10.8284 15.7141 10.8284 14.2859 10.9938 12.8722C11.1109 11.8703 11.9134 11.0903 12.9042 10.9796Z" fill="black"/>
</svg>
